<svg width="1441" height="486" viewBox="0 0 1441 486" fill="none" xmlns="http://www.w3.org/2000/svg">
<path d="M0.72168 485.278H1440.72V88.8179C889.987 -3.49805 574.597 -2.46118 0.72168 88.8179V485.278Z" fill="#0E0D12"/>
<path d="M441.527 16.6409C441.527 19.4023 439.289 21.6409 436.527 21.6409C433.766 21.6409 431.527 19.4023 431.527 16.6409C431.527 13.8794 433.766 11.6409 436.527 11.6409C439.289 11.6409 441.527 13.8794 441.527 16.6409Z" fill="#FBB315"/>
<circle cx="32.7624" cy="77.1909" r="2" transform="rotate(-1.33357 32.7624 77.1909)" fill="#FBB315"/>
<circle cx="83.0699" cy="67.6486" r="2" transform="rotate(-1.33357 83.0699 67.6486)" fill="#FBB315"/>
<circle cx="133.381" cy="58.2337" r="2" transform="rotate(-1.33357 133.381 58.2337)" fill="#FBB315"/>
<circle cx="183.705" cy="49.4114" r="2" transform="rotate(-1.33357 183.705 49.4114)" fill="#FBB315"/>
<circle cx="234.055" cy="41.668" r="2" transform="rotate(-1.33357 234.055 41.668)" fill="#FBB315"/>
<circle cx="284.392" cy="34.3954" r="2" transform="rotate(-1.33357 284.392 34.3954)" fill="#FBB315"/>
<circle cx="334.746" cy="27.8531" r="2" transform="rotate(-1.33357 334.746 27.8531)" fill="#FBB315"/>
<circle cx="385.121" cy="22.1982" r="2" transform="rotate(-1.33357 385.121 22.1982)" fill="#FBB315"/>
<circle cx="999.186" cy="19.3258" r="2" fill="#FBB315"/>
<circle cx="1049.68" cy="24.4083" r="2" fill="#FBB315"/>
<circle cx="1100.17" cy="30.403" r="2" fill="#FBB315"/>
<circle cx="1150.66" cy="36.4572" r="2" fill="#FBB315"/>
<circle cx="1201.16" cy="43.359" r="2" fill="#FBB315"/>
<circle cx="1251.65" cy="50.6539" r="2" fill="#FBB315"/>
<circle cx="1302.14" cy="58.3624" r="2" fill="#FBB315"/>
<circle cx="1352.64" cy="66.8014" r="2" fill="#FBB315"/>
<circle cx="1403.13" cy="74.1783" r="2" fill="#FBB315"/>
<circle cx="945.693" cy="14.3257" r="5" fill="#FBB315"/>
<circle cx="488.257" cy="10.7794" r="2" fill="#FBB315"/>
<circle cx="538.75" cy="7.02301" r="2" fill="#FBB315"/>
<circle cx="589.243" cy="5.02301" r="2" fill="#FBB315"/>
<circle cx="639.736" cy="3.02301" r="2" fill="#FBB315"/>
<circle cx="690.229" cy="2.69531" r="2" fill="#FBB315"/>
<circle cx="740.722" cy="3.32574" r="2" fill="#FBB315"/>
<circle cx="791.215" cy="5.32574" r="2" fill="#FBB315"/>
<circle cx="841.708" cy="7.32574" r="2" fill="#FBB315"/>
<circle cx="892.2" cy="10.3257" r="2" fill="#FBB315"/>
</svg>
